HIERARCHY
ROOT Hips
{
	OFFSET 0.000000 0.000000 0.000000
	CHANNELS 6 Xposition Yposition Zposition Zrotation Yrotation Xrotation 
	JOINT LHipJoint
	{
		OFFSET 0.000000 0.000000 0.000000
		CHANNELS 3 Zrotation Yrotation Xrotation
		JOINT LeftUpLeg
		{
			OFFSET 1.363060 -1.794630 0.839290
			CHANNELS 3 Zrotation Yrotation Xrotation
			JOINT LeftLeg
			{
				OFFSET 2.448110 -6.726130 0.000000
				CHANNELS 3 Zrotation Yrotation Xrotation
				JOINT LeftFoot
				{
					OFFSET 2.562200 -7.039590 0.000000
					CHANNELS 3 Zrotation Yrotation Xrotation
					JOINT LeftToeBase
					{
						OFFSET 0.157640 -0.433110 2.322550
						CHANNELS 3 Zrotation Yrotation Xrotation
						End Site
						{
							OFFSET 0.000000 0.000000 0.000000
						}
					}
				}
			}
		}
	}
	JOINT RHipJoint
	{
		OFFSET 0.000000 0.000000 0.000000
		CHANNELS 3 Zrotation Yrotation Xrotation
		JOINT RightUpLeg
		{
			OFFSET -1.305520 -1.794630 0.839290
			CHANNELS 3 Zrotation Yrotation Xrotation
			JOINT RightLeg
			{
				OFFSET -2.542530 -6.985550 0.000000
				CHANNELS 3 Zrotation Yrotation Xrotation
				JOINT RightFoot
				{
					OFFSET -2.568260 -7.056230 0.000000
					CHANNELS 3 Zrotation Yrotation Xrotation
					JOINT RightToeBase
					{
						OFFSET -0.164730 -0.452590 2.363150
						CHANNELS 3 Zrotation Yrotation Xrotation
						End Site
						{
							OFFSET 0.000000 0.000000 0.000000
						}
					}
				}
			}
		}
	}
	JOINT LowerBack
	{
		OFFSET 0.000000 0.000000 0.000000
		CHANNELS 3 Zrotation Yrotation Xrotation
		JOINT Spine
		{
			OFFSET 0.028270 2.035590 -0.193380
			CHANNELS 3 Zrotation Yrotation Xrotation
			JOINT Spine1
			{
				OFFSET 0.056720 2.048850 -0.042750
				CHANNELS 3 Zrotation Yrotation Xrotation
				JOINT Neck
				{
					OFFSET 0.000000 0.000000 0.000000
					CHANNELS 3 Zrotation Yrotation Xrotation
					JOINT Neck1
					{
						OFFSET -0.054170 1.746240 0.172020
						CHANNELS 3 Zrotation Yrotation Xrotation
						JOINT Head
						{
							OFFSET 0.104070 1.761360 -0.123970
							CHANNELS 3 Zrotation Yrotation Xrotation
							End Site
							{
								OFFSET 0.000000 0.000000 0.000000
							}
						}
					}
				}
				JOINT LeftShoulder
				{
					OFFSET 0.000000 0.000000 0.000000
					CHANNELS 3 Zrotation Yrotation Xrotation
					JOINT LeftArm
					{
						OFFSET 3.362410 1.200890 -0.311210
						CHANNELS 3 Zrotation Yrotation Xrotation
						JOINT LeftForeArm
						{
							OFFSET 4.983000 -0.000000 -0.000000
							CHANNELS 3 Zrotation Yrotation Xrotation
							JOINT LeftHand
							{
								OFFSET 3.483560 -0.000000 -0.000000
								CHANNELS 3 Zrotation Yrotation Xrotation
								JOINT LeftFingerBase
								{
									OFFSET 0.000000 0.000000 0.000000
									CHANNELS 3 Zrotation Yrotation Xrotation
									JOINT LeftHandIndex1
									{
										OFFSET 0.715260 -0.000000 -0.000000
										CHANNELS 3 Zrotation Yrotation Xrotation
										End Site
										{
											OFFSET 0.000000 0.000000 0.000000
										}
									}
								}
								JOINT LThumb
								{
									OFFSET 0.000000 0.000000 0.000000
									CHANNELS 3 Zrotation Yrotation Xrotation
									End Site
									{
										OFFSET 0.000000 0.000000 0.000000
									}
								}
							}
						}
					}
				}
				JOINT RightShoulder
				{
					OFFSET 0.000000 0.000000 0.000000
					CHANNELS 3 Zrotation Yrotation Xrotation
					JOINT RightArm
					{
						OFFSET -3.136600 1.374050 -0.404650
						CHANNELS 3 Zrotation Yrotation Xrotation
						JOINT RightForeArm
						{
							OFFSET -5.241900 -0.000000 -0.000000
							CHANNELS 3 Zrotation Yrotation Xrotation
							JOINT RightHand
							{
								OFFSET -3.444170 -0.000000 -0.000000
								CHANNELS 3 Zrotation Yrotation Xrotation
								JOINT RightFingerBase
								{
									OFFSET 0.000000 0.000000 0.000000
									CHANNELS 3 Zrotation Yrotation Xrotation
									JOINT RightHandIndex1
									{
										OFFSET -0.622530 -0.000000 -0.000000
										CHANNELS 3 Zrotation Yrotation Xrotation
										End Site
										{
											OFFSET 0.000000 0.000000 0.000000
										}
									}
								}
								JOINT RThumb
								{
									OFFSET 0.000000 0.000000 0.000000
									CHANNELS 3 Zrotation Yrotation Xrotation
									End Site
									{
										OFFSET 0.000000 0.000000 0.000000
									}
								}
							}
						}
					}
				}
			}
		}
	}
}
MOTION
Frames: 12
Frame Time: 0.008333
2.710273 15.922821 2.796793 -87.551614 -81.441985 137.333901 -8.597961 -5.250536 -2.674205 -4.277252 -6.691316 -77.726013 -0.779959 2.764132 50.771331 3.746668 12.175297 -21.791065 -2.484100 0.000001 -24.999699 7.579516 0.205531 10.963470 -7.216150 10.100124 -119.243184 7.031133 3.418728 -6.104081 1.397411 3.122224 8.712694 -0.432400 0.000000 -78.716400 7.807408 -1.401780 -0.477409 0.889526 -1.831355 -3.325071 -6.011901 -1.766355 -0.927814 8.260634 -10.266986 -5.919846 -2.083979 -0.150636 -0.029783 0.000000 0.000000 0.000000 9.011241 4.106107 1.195701 -55.519096 -7.707684 -13.253198 -178.914875 -68.504993 179.911496 9.192693 1.951436 0.120666 -0.282931 0.519653 -0.000000 0.000000 0.000000 0.000000 0.000000 0.000000 0.000000 1.658261 -5.818138 0.396534 68.935954 6.455307 0.966949 179.922556 79.461640 179.888528 -14.760732 7.293626 -1.037913 0.254893 -0.579692 -0.000000 0.000000 0.000000 0.000000 0.000000 0.000000 0.000000 
2.714816 15.901547 2.795475 -87.107833 -81.506896 136.827297 -8.618333 -5.252962 -2.659640 -4.345878 -6.727132 -77.901402 -0.777540 2.806580 51.165320 3.727798 12.050339 -21.977728 -2.512900 0.000000 -24.955400 7.631276 0.149593 10.784543 -6.993297 10.072668 -118.778240 7.004302 2.829253 -4.031784 1.612368 3.732970 10.329827 -0.132800 -0.000000 -78.637800 7.690877 -1.346932 -0.363378 0.874104 -1.762502 -3.333623 -5.939561 -1.700378 -1.063090 8.134945 -9.872843 -5.770625 -2.083817 -0.152211 0.007642 0.000000 0.000000 0.000000 8.800464 3.912755 1.229225 -56.240540 -7.762974 -12.802357 -178.943746 -68.963347 179.913047 9.051032 1.941271 0.117915 -0.274664 0.519318 -0.000000 0.000000 0.000000 0.000000 0.000000 0.000000 0.000000 1.552263 -5.413919 0.387003 69.065783 7.237155 0.990218 179.958288 79.846470 179.882245 -15.411784 7.223947 -1.074648 0.262153 -0.581578 -0.000000 0.000000 0.000000 0.000000 0.000000 0.000000 0.000000 
2.716836 15.886144 2.793341 -86.215571 -81.638666 135.828454 -8.655724 -5.245701 -2.613681 -4.434615 -6.838502 -77.964133 -0.776782 2.827515 51.425669 3.705214 11.918841 -22.110821 -2.527600 -0.000000 -24.907600 7.656855 0.103542 10.555830 -6.637915 9.990735 -118.078422 6.956453 2.265106 -2.058929 1.822434 4.412500 11.879355 0.235100 -0.000000 -78.066600 7.546874 -1.314949 -0.255974 0.856647 -1.716599 -3.338928 -5.854174 -1.657401 -1.182436 8.027728 -9.537043 -5.637179 -2.078524 -0.153281 0.041893 0.000000 0.000000 0.000000 8.603736 3.725017 1.254297 -56.984567 -7.835561 -12.338315 -178.973466 -69.417521 179.914623 8.906057 1.909211 0.113374 -0.266194 0.519796 -0.000000 0.000000 0.000000 0.000000 0.000000 0.000000 0.000000 1.456134 -5.076540 0.382291 69.085628 7.994822 1.154346 179.984207 80.205250 179.877363 -15.915802 7.166567 -1.102077 0.267942 -0.582999 -0.000000 0.000000 0.000000 0.000000 0.000000 0.000000 0.000000 
2.716094 15.876546 2.789790 -84.908704 -81.834070 134.393542 -8.704549 -5.222094 -2.535472 -4.550594 -7.026502 -77.938988 -0.779425 2.827780 51.545306 3.679330 11.780170 -22.182128 -2.525800 0.000000 -24.870300 7.660265 0.067219 10.294817 -6.179318 9.853188 -117.175944 6.891351 1.750441 -0.224723 2.001315 5.072466 13.181891 0.619000 0.000000 -77.211300 7.366651 -1.302553 -0.171391 0.834124 -1.690732 -3.344505 -5.760309 -1.634359 -1.284158 7.944039 -9.263561 -5.523337 -2.068872 -0.153870 0.072021 0.000000 0.000000 0.000000 8.432284 3.547016 1.270973 -57.739153 -7.913052 -11.862621 -179.003083 -69.849613 179.916146 8.764553 1.856527 0.107241 -0.257838 0.521056 -0.000000 0.000000 0.000000 0.000000 0.000000 0.000000 0.000000 1.372868 -4.806137 0.382694 69.018488 8.716323 1.434254 -179.999840 80.516972 179.874056 -16.246802 7.130585 -1.120200 0.271941 -0.584348 -0.000000 0.000000 0.000000 0.000000 0.000000 0.000000 0.000000 
2.712405 15.872528 2.784390 -83.220554 -82.085078 132.577111 -8.759933 -5.176986 -2.425557 -4.698181 -7.285861 -77.848965 -0.787050 2.809017 51.521639 3.650377 11.633293 -22.186391 -2.506100 0.000000 -24.855100 7.648302 0.037561 10.017546 -5.639823 9.669572 -116.126024 6.817174 1.290204 1.494056 2.132003 5.627267 14.105370 0.955900 0.000000 -76.336100 7.144793 -1.305295 -0.121894 0.804158 -1.680622 -3.353372 -5.662293 -1.626880 -1.367461 7.885630 -9.055116 -5.432255 -2.055691 -0.154000 0.097149 0.000000 0.000000 0.000000 8.293123 3.382204 1.279768 -58.490906 -7.984234 -11.377289 -179.031818 -70.246337 179.917570 8.631768 1.786410 0.100019 -0.249854 0.522985 -0.000000 0.000000 0.000000 0.000000 0.000000 0.000000 0.000000 1.303640 -4.601929 0.388344 68.889478 9.393929 1.802524 -179.993423 80.766776 179.872387 -16.391471 7.123843 -1.129514 0.273958 -0.585977 -0.000000 0.000000 0.000000 0.000000 0.000000 0.000000 0.000000 
2.705781 15.873794 2.776765 -81.187691 -82.382309 130.430005 -8.817369 -5.106480 -2.284879 -4.880516 -7.608262 -77.715690 -0.801021 2.773509 51.356288 3.618402 11.476863 -22.120330 -2.467700 -0.000000 -24.873100 7.629391 0.010985 9.737261 -5.041112 9.452015 -114.996531 6.739310 0.874550 3.162694 2.204273 5.999046 14.577955 1.186100 0.000000 -75.676400 6.878088 -1.319144 -0.116837 0.764917 -1.682266 -3.368259 -5.564076 -1.630908 -1.432672 7.850741 -8.909710 -5.365103 -2.039849 -0.153725 0.117014 0.000000 0.000000 0.000000 8.190054 3.233143 1.281658 -59.224124 -8.036674 -10.885083 -179.058771 -70.594078 179.918839 8.511965 1.705553 0.092207 -0.242481 0.525373 -0.000000 0.000000 0.000000 0.000000 0.000000 0.000000 0.000000 1.245735 -4.459054 0.398484 68.726350 10.020051 2.230726 -179.995635 80.943206 179.872307 -16.349882 7.152636 -1.131218 0.273905 -0.588190 0.000000 0.000000 0.000000 0.000000 0.000000 0.000000 0.000000 
2.696456 15.880107 2.767006 -78.828369 -82.707746 127.976172 -8.875627 -5.012360 -2.117789 -5.090620 -7.973368 -77.547434 -0.821950 2.724125 51.056517 3.582463 11.307601 -21.985152 -2.410800 0.000000 -24.927300 7.606667 -0.015712 9.457804 -4.396460 9.215524 -113.829675 6.657892 0.488825 4.849202 2.211979 6.128276 14.593547 1.267800 -0.000000 -75.333400 6.573346 -1.338031 -0.150919 0.716826 -1.689340 -3.388260 -5.468285 -1.640041 -1.480718 7.834290 -8.829965 -5.323230 -2.021873 -0.153043 0.130912 0.000000 0.000000 0.000000 8.122604 3.101934 1.277140 -59.930000 -8.071092 -10.388948 -179.083708 -70.889211 179.919966 8.404835 1.616260 0.084103 -0.235734 0.528124 0.000000 0.000000 0.000000 0.000000 0.000000 0.000000 0.000000 1.194378 -4.377618 0.412840 68.549401 10.598893 2.692462 179.994686 81.041081 179.873639 -16.138305 7.216212 -1.126115 0.271904 -0.591152 0.000000 0.000000 0.000000 0.000000 0.000000 0.000000 0.000000 
2.684734 15.891059 2.755046 -76.168581 -83.048672 125.239745 -8.932695 -4.895334 -1.928243 -5.325779 -8.365391 -77.348493 -0.850252 2.663598 50.632778 3.542251 11.125045 -21.784442 -2.336700 0.000001 -25.026600 7.583932 -0.043198 9.180155 -3.723057 8.969088 -112.666904 6.567442 0.114219 6.630665 2.151152 5.980617 14.189961 1.185300 0.000001 -75.365800 6.234931 -1.358726 -0.218295 0.659977 -1.698270 -3.412627 -5.377360 -1.650681 -1.513533 7.830635 -8.809102 -5.304671 -2.002825 -0.152045 0.139247 0.000000 0.000000 0.000000 8.089538 2.989388 1.267372 -60.596863 -8.082970 -9.893597 -179.106034 -71.125685 179.920967 8.308366 1.524440 0.076007 -0.229627 0.531046 -0.000000 0.000000 0.000000 0.000000 0.000000 0.000000 0.000000 1.145936 -4.349821 0.429988 68.377552 11.129227 3.163382 179.978887 81.060088 179.876133 -15.784696 7.311824 -1.115304 0.268183 -0.594914 -0.000000 0.000000 0.000000 0.000000 0.000000 0.000000 0.000000 
2.670671 15.905997 2.740950 -73.220731 -83.394180 122.230764 -8.987689 -4.756751 -1.718050 -5.580780 -8.773268 -77.121992 -0.885548 2.593994 50.098041 3.498277 10.931582 -21.525804 -2.248200 -0.000000 -25.164700 7.563065 -0.071037 8.902257 -3.037047 8.716629 -111.541008 6.460031 -0.267831 8.579172 2.020652 5.554386 13.431792 0.951000 -0.000000 -75.640200 5.870186 -1.379635 -0.313245 0.595468 -1.707295 -3.440530 -5.292963 -1.661074 -1.533015 7.831945 -8.836785 -5.305890 -1.983509 -0.150825 0.142931 0.000000 0.000000 0.000000 8.083314 2.896311 1.254299 -61.210986 -8.065761 -9.405145 -179.124933 -71.300654 179.921877 8.219630 1.437628 0.068615 -0.224194 0.533870 -0.000000 0.000000 0.000000 0.000000 0.000000 0.000000 0.000000 1.093951 -4.365474 0.447563 68.226242 11.610668 3.624537 179.958406 81.003735 179.879491 -15.324519 7.433630 -1.099987 0.263073 -0.599437 -0.000000 0.000000 0.000000 0.000000 0.000000 0.000000 0.000000 
2.654703 15.924513 2.724978 -70.007962 -83.728664 118.960790 -9.040490 -4.600967 -1.492516 -5.845810 -9.179518 -76.861015 -0.926832 2.517650 49.469816 3.450712 10.729650 -21.220097 -2.148800 0.000000 -25.333300 7.541158 -0.094791 8.616607 -2.355477 8.459733 -110.446602 6.323271 -0.666252 10.720281 1.819525 4.862366 12.422514 0.594500 0.000000 -76.016700 5.490571 -1.397873 -0.420117 0.525399 -1.713229 -3.468584 -5.215918 -1.668000 -1.541550 7.831752 -8.905393 -5.322868 -1.964726 -0.149475 0.142798 0.000000 0.000000 0.000000 8.098979 2.821951 1.238839 -61.767312 -8.022835 -8.930255 -179.140245 -71.416798 179.922772 8.131514 1.358116 0.061929 -0.219247 0.536489 -0.000000 0.000000 0.000000 0.000000 0.000000 0.000000 0.000000 1.035077 -4.417090 0.463923 68.100978 12.049371 4.061203 179.934709 80.879367 179.883353 -14.801354 7.570703 -1.081067 0.257078 -0.604560 0.000000 0.000000 0.000000 0.000000 0.000000 0.000000 0.000000 
2.637261 15.946042 2.707429 -66.570413 -84.037214 115.459004 -9.090667 -4.432471 -1.255893 -6.108764 -9.569713 -76.561173 -0.972380 2.436388 48.766494 3.400413 10.524163 -20.878547 -2.042500 -0.000000 -25.525500 7.514657 -0.108340 8.316758 -1.698942 8.198372 -109.365559 6.145422 -1.082382 13.048564 1.550934 3.936982 11.275384 0.156000 -0.000000 -76.295900 5.108983 -1.411523 -0.525786 0.452587 -1.714124 -3.493829 -5.146455 -1.669503 -1.541128 7.824240 -9.004224 -5.350823 -1.947113 -0.148087 0.139984 0.000000 0.000000 0.000000 8.129566 2.767510 1.222304 -62.261896 -7.957522 -8.476254 -179.151749 -71.480630 179.923734 8.036402 1.287697 0.055945 -0.214602 0.538798 0.000000 0.000000 0.000000 0.000000 0.000000 0.000000 0.000000 0.966327 -4.494551 0.476979 68.001648 12.451457 4.464496 179.909235 80.696671 179.887376 -14.257755 7.710097 -1.059644 0.250736 -0.610050 0.000000 0.000000 0.000000 0.000000 0.000000 0.000000 0.000000 
2.618639 15.970015 2.688577 -62.982360 -84.305604 111.792988 -9.137164 -4.255739 -1.010971 -6.355187 -9.933017 -76.224754 -1.019830 2.351474 48.007166 3.349151 10.322490 -20.513460 -1.933400 -0.000000 -25.725300 7.480731 -0.105510 8.000960 -1.092344 7.934126 -108.270948 5.918322 -1.507889 15.520421 1.223641 2.824404 10.101731 -0.323800 0.000000 -76.240700 4.739470 -1.418731 -0.623589 0.380454 -1.708432 -3.514754 -5.084345 -1.664086 -1.533437 7.804566 -9.121852 -5.384576 -1.931325 -0.146776 0.135881 0.000000 0.000000 0.000000 8.168035 2.732939 1.205660 -62.692660 -7.870758 -8.051521 -179.159088 -71.494550 179.924835 7.927740 1.227402 0.050762 -0.210115 0.540726 -0.000000 0.000000 0.000000 0.000000 0.000000 0.000000 0.000000 0.885626 -4.587068 0.484962 67.923922 12.822579 4.830459 179.883291 80.468207 179.891248 -13.732660 7.840572 -1.037221 0.244597 -0.615663 0.000000 0.000000 0.000000 0.000000 0.000000 0.000000 0.000000 
